# xmcd
#
# Track frame offsets:
#	150
#	11657
#	28633
#	43592
#	57409
#	72149
#	84939
#	100376
#	111368
#	122855
#	134053
#	147685
#	157720
#	169133
#	182341
#	192598
#	205579
#	218097
#	230685
#	245219
#	256274
#	270596
#	282470
#	294768
#	308171
#
# Disc length: 4250 seconds
#
# Revision: 1# Processed by: cddbd v1.5PL3 Copyright (c) Steve Scherf et al.
# Processed by: cddbd v1.5.1PL0 Copyright (c) Steve Scherf et al.
# Submitted via: dBpowerAMP V4.0
#
DISCID=77109819
DTITLE=Various Artist - Blowing the Blues: A History of Blues Harmonica 1926-2002 [CD2: 1946-52 The Harp Goes Electric)
DYEAR=2003
DGENRE=Blues
TTITLE0=King Bisquit Stomp - Big Joe Williams
TTITLE1=Pet Milk Blues - Walter Mitchell
TTITLE2=Better Get Ready - Elder Roma Wilson
TTITLE3=Bring Another Half a Pint - Sonny Boy Williamson
TTITLE4=Memory of Sonny Boy - Forest City Joe
TTITLE5=I´m a Country Boy - Pee Wee Hughes and His Delta Duo
TTITLE6=Wig Wearing Woman - Robert Rickard
TTITLE7=Boogy Fool - Snooky Pryor
TTITLE8=Creole Gal Blues - Edgar Blanchard and The Gondoliers
TTITLE9=Wallin´ Willie - Rhytm Willie
TTITLE10=Winehead Swing - James Tisdom
TTITLE11=Evan´s Shuffle - Muddy Waters
TTITLE12=Gotta Go Baby - Joe Hill Louis
TTITLE13=Moanin´ at Midnight - Howling Wolf
TTITLE14=Jumpin´ Blues - Walter Horton
TTITLE15=Me and My Chauffeur - Memphis Minnie
TTITLE16=Down South Blues - Driftin´ Slim
TTITLE17=Juke - Little Walter
TTITLE18=Glad to Be Back Home - Sunny Blair
TTITLE19=After-While (Blues Lights) - Papa Lightfoot
TTITLE20=Man Around My Door - Grace Brim
TTITLE21=Doctor Ross Boogie - Doctor Ross and His Jump and Jive Boys
TTITLE22=The Woman Is Killing Me - Sonny Terry
TTITLE23=Mighty Long Time - Sonny Boy Williamson
TTITLE24=Don´t Come Back - Little Mac
EXTD=
EXTT0=
EXTT1=
EXTT2=
EXTT3=
EXTT4=
EXTT5=
EXTT6=
EXTT7=
EXTT8=
EXTT9=
EXTT10=
EXTT11=
EXTT12=
EXTT13=
EXTT14=
EXTT15=
EXTT16=
EXTT17=
EXTT18=
EXTT19=
EXTT20=
EXTT21=
EXTT22=
EXTT23=
EXTT24=
PLAYORDER=
